<?xml version="1.0" standalone="no"?><!DOCTYPE svg PUBLIC "-//W3C//DTD SVG 1.1//EN" "http://www.w3.org/Graphics/SVG/1.1/DTD/svg11.dtd"><svg t="1560321951401" class="icon" style="" viewBox="0 0 1024 1024" version="1.1" xmlns="http://www.w3.org/2000/svg" p-id="2856" xmlns:xlink="http://www.w3.org/1999/xlink" width="200" height="200"><defs><style type="text/css"></style></defs><path d="M919.418716 567.223077L175.652891 1013.906662a66.611351 66.611351 0 0 1-68.146849 1.316141 64.564021 64.564021 0 0 1-34.512139-57.837079V66.35836a64.417783 64.417783 0 0 1 34.43902-57.837079 66.757589 66.757589 0 0 1 68.146849 1.169903l743.40023 444.343779a65.807043 65.807043 0 0 1 0.438714 113.188114zM713.003957 478.164212L279.335543 223.637193a39.849821 39.849821 0 0 0-39.776702-0.65807 36.925063 36.925063 0 0 0-20.034588 33.122878v510.29706a36.559468 36.559468 0 0 0 20.107707 33.122878 39.484226 39.484226 0 0 0 39.776702-0.731189l433.668414-255.916279a37.290658 37.290658 0 0 0-0.073119-64.710259z" fill="#0078D7" p-id="2857"></path></svg>